%TF.GenerationSoftware,KiCad,Pcbnew,5.1.6-c6e7f7d~87~ubuntu18.04.1*%
%TF.CreationDate,2023-11-02T18:31:54+00:00*%
%TF.ProjectId,tlc5940nt_dip_adapter,746c6335-3934-4306-9e74-5f6469705f61,1.0*%
%TF.SameCoordinates,Original*%
%TF.FileFunction,Copper,L2,Bot*%
%TF.FilePolarity,Positive*%
%FSLAX46Y46*%
G04 Gerber Fmt 4.6, Leading zero omitted, Abs format (unit mm)*
G04 Created by KiCad (PCBNEW 5.1.6-c6e7f7d~87~ubuntu18.04.1) date 2023-11-02 18:31:54*
%MOMM*%
%LPD*%
G01*
G04 APERTURE LIST*
%TA.AperFunction,ComponentPad*%
%ADD10C,0.387500*%
%TD*%
%TA.AperFunction,ComponentPad*%
%ADD11R,1.600000X1.600000*%
%TD*%
%TA.AperFunction,ComponentPad*%
%ADD12O,1.600000X1.600000*%
%TD*%
%TA.AperFunction,Conductor*%
%ADD13C,0.254000*%
%TD*%
G04 APERTURE END LIST*
D10*
%TO.P,U1,33*%
%TO.N,GND*%
X142982500Y-94888500D03*
X143757500Y-94888500D03*
X144532500Y-94888500D03*
X145307500Y-94888500D03*
X142982500Y-94113500D03*
X143757500Y-94113500D03*
X144532500Y-94113500D03*
X145307500Y-94113500D03*
X142982500Y-93338500D03*
X143757500Y-93338500D03*
X144532500Y-93338500D03*
X145307500Y-93338500D03*
X142982500Y-92563500D03*
X143757500Y-92563500D03*
X144532500Y-92563500D03*
X145307500Y-92563500D03*
%TD*%
D11*
%TO.P,J1,1*%
%TO.N,/OUT1*%
X140317001Y-77267001D03*
D12*
%TO.P,J1,15*%
%TO.N,/OUT15*%
X147937001Y-110287001D03*
%TO.P,J1,2*%
%TO.N,/OUT2*%
X140317001Y-79807001D03*
%TO.P,J1,16*%
%TO.N,/XERR*%
X147937001Y-107747001D03*
%TO.P,J1,3*%
%TO.N,/OUT3*%
X140317001Y-82347001D03*
%TO.P,J1,17*%
%TO.N,/SOUT*%
X147937001Y-105207001D03*
%TO.P,J1,4*%
%TO.N,/OUT4*%
X140317001Y-84887001D03*
%TO.P,J1,18*%
%TO.N,/GSCLK*%
X147937001Y-102667001D03*
%TO.P,J1,5*%
%TO.N,/OUT5*%
X140317001Y-87427001D03*
%TO.P,J1,19*%
%TO.N,/DCPRG*%
X147937001Y-100127001D03*
%TO.P,J1,6*%
%TO.N,/OUT6*%
X140317001Y-89967001D03*
%TO.P,J1,20*%
%TO.N,/IREF*%
X147937001Y-97587001D03*
%TO.P,J1,7*%
%TO.N,/OUT7*%
X140317001Y-92507001D03*
%TO.P,J1,21*%
%TO.N,VCC*%
X147937001Y-95047001D03*
%TO.P,J1,8*%
%TO.N,/OUT8*%
X140317001Y-95047001D03*
%TO.P,J1,22*%
%TO.N,GND*%
X147937001Y-92507001D03*
%TO.P,J1,9*%
%TO.N,/OUT9*%
X140317001Y-97587001D03*
%TO.P,J1,23*%
%TO.N,/BLANK*%
X147937001Y-89967001D03*
%TO.P,J1,10*%
%TO.N,/OUT10*%
X140317001Y-100127001D03*
%TO.P,J1,24*%
%TO.N,/XLAT*%
X147937001Y-87427001D03*
%TO.P,J1,11*%
%TO.N,/OUT11*%
X140317001Y-102667001D03*
%TO.P,J1,25*%
%TO.N,/SCLK*%
X147937001Y-84887001D03*
%TO.P,J1,12*%
%TO.N,/OUT12*%
X140317001Y-105207001D03*
%TO.P,J1,26*%
%TO.N,/SIN*%
X147937001Y-82347001D03*
%TO.P,J1,13*%
%TO.N,/OUT13*%
X140317001Y-107747001D03*
%TO.P,J1,27*%
%TO.N,/VPRG*%
X147937001Y-79807001D03*
%TO.P,J1,14*%
%TO.N,/OUT14*%
X140317001Y-110287001D03*
%TO.P,J1,28*%
%TO.N,/OUT0*%
X147937001Y-77267001D03*
%TD*%
D13*
%TO.N,GND*%
G36*
X146665321Y-76587274D02*
G01*
X146557148Y-76848427D01*
X146502001Y-77125666D01*
X146502001Y-77408336D01*
X146557148Y-77685575D01*
X146665321Y-77946728D01*
X146822364Y-78181760D01*
X147022242Y-78381638D01*
X147254760Y-78537001D01*
X147022242Y-78692364D01*
X146822364Y-78892242D01*
X146665321Y-79127274D01*
X146557148Y-79388427D01*
X146502001Y-79665666D01*
X146502001Y-79948336D01*
X146557148Y-80225575D01*
X146665321Y-80486728D01*
X146822364Y-80721760D01*
X147022242Y-80921638D01*
X147254760Y-81077001D01*
X147022242Y-81232364D01*
X146822364Y-81432242D01*
X146665321Y-81667274D01*
X146557148Y-81928427D01*
X146502001Y-82205666D01*
X146502001Y-82488336D01*
X146557148Y-82765575D01*
X146665321Y-83026728D01*
X146822364Y-83261760D01*
X147022242Y-83461638D01*
X147254760Y-83617001D01*
X147022242Y-83772364D01*
X146822364Y-83972242D01*
X146665321Y-84207274D01*
X146557148Y-84468427D01*
X146502001Y-84745666D01*
X146502001Y-85028336D01*
X146557148Y-85305575D01*
X146665321Y-85566728D01*
X146822364Y-85801760D01*
X147022242Y-86001638D01*
X147254760Y-86157001D01*
X147022242Y-86312364D01*
X146822364Y-86512242D01*
X146665321Y-86747274D01*
X146557148Y-87008427D01*
X146502001Y-87285666D01*
X146502001Y-87568336D01*
X146557148Y-87845575D01*
X146665321Y-88106728D01*
X146822364Y-88341760D01*
X147022242Y-88541638D01*
X147254760Y-88697001D01*
X147022242Y-88852364D01*
X146822364Y-89052242D01*
X146665321Y-89287274D01*
X146557148Y-89548427D01*
X146502001Y-89825666D01*
X146502001Y-90108336D01*
X146557148Y-90385575D01*
X146665321Y-90646728D01*
X146822364Y-90881760D01*
X147022242Y-91081638D01*
X147257274Y-91238681D01*
X147518427Y-91346854D01*
X147795666Y-91402001D01*
X148078336Y-91402001D01*
X148159000Y-91385956D01*
X148159000Y-93628046D01*
X148078336Y-93612001D01*
X147795666Y-93612001D01*
X147518427Y-93667148D01*
X147257274Y-93775321D01*
X147022242Y-93932364D01*
X146822364Y-94132242D01*
X146665321Y-94367274D01*
X146557148Y-94628427D01*
X146502001Y-94905666D01*
X146502001Y-95188336D01*
X146557148Y-95465575D01*
X146665321Y-95726728D01*
X146822364Y-95961760D01*
X147022242Y-96161638D01*
X147254760Y-96317001D01*
X147022242Y-96472364D01*
X146822364Y-96672242D01*
X146665321Y-96907274D01*
X146557148Y-97168427D01*
X146502001Y-97445666D01*
X146502001Y-97728336D01*
X146557148Y-98005575D01*
X146665321Y-98266728D01*
X146822364Y-98501760D01*
X147022242Y-98701638D01*
X147254760Y-98857001D01*
X147022242Y-99012364D01*
X146822364Y-99212242D01*
X146665321Y-99447274D01*
X146557148Y-99708427D01*
X146502001Y-99985666D01*
X146502001Y-100268336D01*
X146557148Y-100545575D01*
X146665321Y-100806728D01*
X146822364Y-101041760D01*
X147022242Y-101241638D01*
X147254760Y-101397001D01*
X147022242Y-101552364D01*
X146822364Y-101752242D01*
X146665321Y-101987274D01*
X146557148Y-102248427D01*
X146502001Y-102525666D01*
X146502001Y-102808336D01*
X146557148Y-103085575D01*
X146665321Y-103346728D01*
X146822364Y-103581760D01*
X147022242Y-103781638D01*
X147254760Y-103937001D01*
X147022242Y-104092364D01*
X146822364Y-104292242D01*
X146665321Y-104527274D01*
X146557148Y-104788427D01*
X146502001Y-105065666D01*
X146502001Y-105348336D01*
X146557148Y-105625575D01*
X146665321Y-105886728D01*
X146822364Y-106121760D01*
X147022242Y-106321638D01*
X147254760Y-106477001D01*
X147022242Y-106632364D01*
X146822364Y-106832242D01*
X146665321Y-107067274D01*
X146557148Y-107328427D01*
X146502001Y-107605666D01*
X146502001Y-107888336D01*
X146557148Y-108165575D01*
X146665321Y-108426728D01*
X146822364Y-108661760D01*
X147022242Y-108861638D01*
X147254760Y-109017001D01*
X147022242Y-109172364D01*
X146822364Y-109372242D01*
X146665321Y-109607274D01*
X146557148Y-109868427D01*
X146502001Y-110145666D01*
X146502001Y-110428336D01*
X146557148Y-110705575D01*
X146665321Y-110966728D01*
X146737666Y-111075000D01*
X141516336Y-111075000D01*
X141588681Y-110966728D01*
X141696854Y-110705575D01*
X141752001Y-110428336D01*
X141752001Y-110145666D01*
X141696854Y-109868427D01*
X141588681Y-109607274D01*
X141431638Y-109372242D01*
X141231760Y-109172364D01*
X140999242Y-109017001D01*
X141231760Y-108861638D01*
X141431638Y-108661760D01*
X141588681Y-108426728D01*
X141696854Y-108165575D01*
X141752001Y-107888336D01*
X141752001Y-107605666D01*
X141696854Y-107328427D01*
X141588681Y-107067274D01*
X141431638Y-106832242D01*
X141231760Y-106632364D01*
X140999242Y-106477001D01*
X141231760Y-106321638D01*
X141431638Y-106121760D01*
X141588681Y-105886728D01*
X141696854Y-105625575D01*
X141752001Y-105348336D01*
X141752001Y-105065666D01*
X141696854Y-104788427D01*
X141588681Y-104527274D01*
X141431638Y-104292242D01*
X141231760Y-104092364D01*
X140999242Y-103937001D01*
X141231760Y-103781638D01*
X141431638Y-103581760D01*
X141588681Y-103346728D01*
X141696854Y-103085575D01*
X141752001Y-102808336D01*
X141752001Y-102525666D01*
X141696854Y-102248427D01*
X141588681Y-101987274D01*
X141431638Y-101752242D01*
X141231760Y-101552364D01*
X140999242Y-101397001D01*
X141231760Y-101241638D01*
X141431638Y-101041760D01*
X141588681Y-100806728D01*
X141696854Y-100545575D01*
X141752001Y-100268336D01*
X141752001Y-99985666D01*
X141696854Y-99708427D01*
X141588681Y-99447274D01*
X141431638Y-99212242D01*
X141231760Y-99012364D01*
X140999242Y-98857001D01*
X141231760Y-98701638D01*
X141431638Y-98501760D01*
X141588681Y-98266728D01*
X141696854Y-98005575D01*
X141752001Y-97728336D01*
X141752001Y-97445666D01*
X141696854Y-97168427D01*
X141588681Y-96907274D01*
X141431638Y-96672242D01*
X141231760Y-96472364D01*
X140999242Y-96317001D01*
X141231760Y-96161638D01*
X141431638Y-95961760D01*
X141588681Y-95726728D01*
X141696854Y-95465575D01*
X141752001Y-95188336D01*
X141752001Y-94905666D01*
X141696854Y-94628427D01*
X141588681Y-94367274D01*
X141431638Y-94132242D01*
X141231760Y-93932364D01*
X140999242Y-93777001D01*
X141231760Y-93621638D01*
X141431638Y-93421760D01*
X141588681Y-93186728D01*
X141696854Y-92925575D01*
X141752001Y-92648336D01*
X141752001Y-92365666D01*
X141696854Y-92088427D01*
X141588681Y-91827274D01*
X141431638Y-91592242D01*
X141231760Y-91392364D01*
X140999242Y-91237001D01*
X141231760Y-91081638D01*
X141431638Y-90881760D01*
X141588681Y-90646728D01*
X141696854Y-90385575D01*
X141752001Y-90108336D01*
X141752001Y-89825666D01*
X141696854Y-89548427D01*
X141588681Y-89287274D01*
X141431638Y-89052242D01*
X141231760Y-88852364D01*
X140999242Y-88697001D01*
X141231760Y-88541638D01*
X141431638Y-88341760D01*
X141588681Y-88106728D01*
X141696854Y-87845575D01*
X141752001Y-87568336D01*
X141752001Y-87285666D01*
X141696854Y-87008427D01*
X141588681Y-86747274D01*
X141431638Y-86512242D01*
X141231760Y-86312364D01*
X140999242Y-86157001D01*
X141231760Y-86001638D01*
X141431638Y-85801760D01*
X141588681Y-85566728D01*
X141696854Y-85305575D01*
X141752001Y-85028336D01*
X141752001Y-84745666D01*
X141696854Y-84468427D01*
X141588681Y-84207274D01*
X141431638Y-83972242D01*
X141231760Y-83772364D01*
X140999242Y-83617001D01*
X141231760Y-83461638D01*
X141431638Y-83261760D01*
X141588681Y-83026728D01*
X141696854Y-82765575D01*
X141752001Y-82488336D01*
X141752001Y-82205666D01*
X141696854Y-81928427D01*
X141588681Y-81667274D01*
X141431638Y-81432242D01*
X141231760Y-81232364D01*
X140999242Y-81077001D01*
X141231760Y-80921638D01*
X141431638Y-80721760D01*
X141588681Y-80486728D01*
X141696854Y-80225575D01*
X141752001Y-79948336D01*
X141752001Y-79665666D01*
X141696854Y-79388427D01*
X141588681Y-79127274D01*
X141431638Y-78892242D01*
X141233040Y-78693644D01*
X141241483Y-78692813D01*
X141361181Y-78656503D01*
X141471495Y-78597538D01*
X141568186Y-78518186D01*
X141647538Y-78421495D01*
X141706503Y-78311181D01*
X141742813Y-78191483D01*
X141755073Y-78067001D01*
X141755073Y-76467001D01*
X141746209Y-76377000D01*
X146805821Y-76377000D01*
X146665321Y-76587274D01*
G37*
X146665321Y-76587274D02*
X146557148Y-76848427D01*
X146502001Y-77125666D01*
X146502001Y-77408336D01*
X146557148Y-77685575D01*
X146665321Y-77946728D01*
X146822364Y-78181760D01*
X147022242Y-78381638D01*
X147254760Y-78537001D01*
X147022242Y-78692364D01*
X146822364Y-78892242D01*
X146665321Y-79127274D01*
X146557148Y-79388427D01*
X146502001Y-79665666D01*
X146502001Y-79948336D01*
X146557148Y-80225575D01*
X146665321Y-80486728D01*
X146822364Y-80721760D01*
X147022242Y-80921638D01*
X147254760Y-81077001D01*
X147022242Y-81232364D01*
X146822364Y-81432242D01*
X146665321Y-81667274D01*
X146557148Y-81928427D01*
X146502001Y-82205666D01*
X146502001Y-82488336D01*
X146557148Y-82765575D01*
X146665321Y-83026728D01*
X146822364Y-83261760D01*
X147022242Y-83461638D01*
X147254760Y-83617001D01*
X147022242Y-83772364D01*
X146822364Y-83972242D01*
X146665321Y-84207274D01*
X146557148Y-84468427D01*
X146502001Y-84745666D01*
X146502001Y-85028336D01*
X146557148Y-85305575D01*
X146665321Y-85566728D01*
X146822364Y-85801760D01*
X147022242Y-86001638D01*
X147254760Y-86157001D01*
X147022242Y-86312364D01*
X146822364Y-86512242D01*
X146665321Y-86747274D01*
X146557148Y-87008427D01*
X146502001Y-87285666D01*
X146502001Y-87568336D01*
X146557148Y-87845575D01*
X146665321Y-88106728D01*
X146822364Y-88341760D01*
X147022242Y-88541638D01*
X147254760Y-88697001D01*
X147022242Y-88852364D01*
X146822364Y-89052242D01*
X146665321Y-89287274D01*
X146557148Y-89548427D01*
X146502001Y-89825666D01*
X146502001Y-90108336D01*
X146557148Y-90385575D01*
X146665321Y-90646728D01*
X146822364Y-90881760D01*
X147022242Y-91081638D01*
X147257274Y-91238681D01*
X147518427Y-91346854D01*
X147795666Y-91402001D01*
X148078336Y-91402001D01*
X148159000Y-91385956D01*
X148159000Y-93628046D01*
X148078336Y-93612001D01*
X147795666Y-93612001D01*
X147518427Y-93667148D01*
X147257274Y-93775321D01*
X147022242Y-93932364D01*
X146822364Y-94132242D01*
X146665321Y-94367274D01*
X146557148Y-94628427D01*
X146502001Y-94905666D01*
X146502001Y-95188336D01*
X146557148Y-95465575D01*
X146665321Y-95726728D01*
X146822364Y-95961760D01*
X147022242Y-96161638D01*
X147254760Y-96317001D01*
X147022242Y-96472364D01*
X146822364Y-96672242D01*
X146665321Y-96907274D01*
X146557148Y-97168427D01*
X146502001Y-97445666D01*
X146502001Y-97728336D01*
X146557148Y-98005575D01*
X146665321Y-98266728D01*
X146822364Y-98501760D01*
X147022242Y-98701638D01*
X147254760Y-98857001D01*
X147022242Y-99012364D01*
X146822364Y-99212242D01*
X146665321Y-99447274D01*
X146557148Y-99708427D01*
X146502001Y-99985666D01*
X146502001Y-100268336D01*
X146557148Y-100545575D01*
X146665321Y-100806728D01*
X146822364Y-101041760D01*
X147022242Y-101241638D01*
X147254760Y-101397001D01*
X147022242Y-101552364D01*
X146822364Y-101752242D01*
X146665321Y-101987274D01*
X146557148Y-102248427D01*
X146502001Y-102525666D01*
X146502001Y-102808336D01*
X146557148Y-103085575D01*
X146665321Y-103346728D01*
X146822364Y-103581760D01*
X147022242Y-103781638D01*
X147254760Y-103937001D01*
X147022242Y-104092364D01*
X146822364Y-104292242D01*
X146665321Y-104527274D01*
X146557148Y-104788427D01*
X146502001Y-105065666D01*
X146502001Y-105348336D01*
X146557148Y-105625575D01*
X146665321Y-105886728D01*
X146822364Y-106121760D01*
X147022242Y-106321638D01*
X147254760Y-106477001D01*
X147022242Y-106632364D01*
X146822364Y-106832242D01*
X146665321Y-107067274D01*
X146557148Y-107328427D01*
X146502001Y-107605666D01*
X146502001Y-107888336D01*
X146557148Y-108165575D01*
X146665321Y-108426728D01*
X146822364Y-108661760D01*
X147022242Y-108861638D01*
X147254760Y-109017001D01*
X147022242Y-109172364D01*
X146822364Y-109372242D01*
X146665321Y-109607274D01*
X146557148Y-109868427D01*
X146502001Y-110145666D01*
X146502001Y-110428336D01*
X146557148Y-110705575D01*
X146665321Y-110966728D01*
X146737666Y-111075000D01*
X141516336Y-111075000D01*
X141588681Y-110966728D01*
X141696854Y-110705575D01*
X141752001Y-110428336D01*
X141752001Y-110145666D01*
X141696854Y-109868427D01*
X141588681Y-109607274D01*
X141431638Y-109372242D01*
X141231760Y-109172364D01*
X140999242Y-109017001D01*
X141231760Y-108861638D01*
X141431638Y-108661760D01*
X141588681Y-108426728D01*
X141696854Y-108165575D01*
X141752001Y-107888336D01*
X141752001Y-107605666D01*
X141696854Y-107328427D01*
X141588681Y-107067274D01*
X141431638Y-106832242D01*
X141231760Y-106632364D01*
X140999242Y-106477001D01*
X141231760Y-106321638D01*
X141431638Y-106121760D01*
X141588681Y-105886728D01*
X141696854Y-105625575D01*
X141752001Y-105348336D01*
X141752001Y-105065666D01*
X141696854Y-104788427D01*
X141588681Y-104527274D01*
X141431638Y-104292242D01*
X141231760Y-104092364D01*
X140999242Y-103937001D01*
X141231760Y-103781638D01*
X141431638Y-103581760D01*
X141588681Y-103346728D01*
X141696854Y-103085575D01*
X141752001Y-102808336D01*
X141752001Y-102525666D01*
X141696854Y-102248427D01*
X141588681Y-101987274D01*
X141431638Y-101752242D01*
X141231760Y-101552364D01*
X140999242Y-101397001D01*
X141231760Y-101241638D01*
X141431638Y-101041760D01*
X141588681Y-100806728D01*
X141696854Y-100545575D01*
X141752001Y-100268336D01*
X141752001Y-99985666D01*
X141696854Y-99708427D01*
X141588681Y-99447274D01*
X141431638Y-99212242D01*
X141231760Y-99012364D01*
X140999242Y-98857001D01*
X141231760Y-98701638D01*
X141431638Y-98501760D01*
X141588681Y-98266728D01*
X141696854Y-98005575D01*
X141752001Y-97728336D01*
X141752001Y-97445666D01*
X141696854Y-97168427D01*
X141588681Y-96907274D01*
X141431638Y-96672242D01*
X141231760Y-96472364D01*
X140999242Y-96317001D01*
X141231760Y-96161638D01*
X141431638Y-95961760D01*
X141588681Y-95726728D01*
X141696854Y-95465575D01*
X141752001Y-95188336D01*
X141752001Y-94905666D01*
X141696854Y-94628427D01*
X141588681Y-94367274D01*
X141431638Y-94132242D01*
X141231760Y-93932364D01*
X140999242Y-93777001D01*
X141231760Y-93621638D01*
X141431638Y-93421760D01*
X141588681Y-93186728D01*
X141696854Y-92925575D01*
X141752001Y-92648336D01*
X141752001Y-92365666D01*
X141696854Y-92088427D01*
X141588681Y-91827274D01*
X141431638Y-91592242D01*
X141231760Y-91392364D01*
X140999242Y-91237001D01*
X141231760Y-91081638D01*
X141431638Y-90881760D01*
X141588681Y-90646728D01*
X141696854Y-90385575D01*
X141752001Y-90108336D01*
X141752001Y-89825666D01*
X141696854Y-89548427D01*
X141588681Y-89287274D01*
X141431638Y-89052242D01*
X141231760Y-88852364D01*
X140999242Y-88697001D01*
X141231760Y-88541638D01*
X141431638Y-88341760D01*
X141588681Y-88106728D01*
X141696854Y-87845575D01*
X141752001Y-87568336D01*
X141752001Y-87285666D01*
X141696854Y-87008427D01*
X141588681Y-86747274D01*
X141431638Y-86512242D01*
X141231760Y-86312364D01*
X140999242Y-86157001D01*
X141231760Y-86001638D01*
X141431638Y-85801760D01*
X141588681Y-85566728D01*
X141696854Y-85305575D01*
X141752001Y-85028336D01*
X141752001Y-84745666D01*
X141696854Y-84468427D01*
X141588681Y-84207274D01*
X141431638Y-83972242D01*
X141231760Y-83772364D01*
X140999242Y-83617001D01*
X141231760Y-83461638D01*
X141431638Y-83261760D01*
X141588681Y-83026728D01*
X141696854Y-82765575D01*
X141752001Y-82488336D01*
X141752001Y-82205666D01*
X141696854Y-81928427D01*
X141588681Y-81667274D01*
X141431638Y-81432242D01*
X141231760Y-81232364D01*
X140999242Y-81077001D01*
X141231760Y-80921638D01*
X141431638Y-80721760D01*
X141588681Y-80486728D01*
X141696854Y-80225575D01*
X141752001Y-79948336D01*
X141752001Y-79665666D01*
X141696854Y-79388427D01*
X141588681Y-79127274D01*
X141431638Y-78892242D01*
X141233040Y-78693644D01*
X141241483Y-78692813D01*
X141361181Y-78656503D01*
X141471495Y-78597538D01*
X141568186Y-78518186D01*
X141647538Y-78421495D01*
X141706503Y-78311181D01*
X141742813Y-78191483D01*
X141755073Y-78067001D01*
X141755073Y-76467001D01*
X141746209Y-76377000D01*
X146805821Y-76377000D01*
X146665321Y-76587274D01*
%TD*%
M02*
