M48
; DRILL file {KiCad 5.1.6-c6e7f7d~87~ubuntu18.04.1} date Thu Nov  2 18:31:58 2023
; FORMAT={-:-/ absolute / metric / decimal}
; #@! TF.CreationDate,2023-11-02T18:31:58+00:00
; #@! TF.GenerationSoftware,Kicad,Pcbnew,5.1.6-c6e7f7d~87~ubuntu18.04.1
FMAT,2
METRIC
T1C0.194
T2C0.800
%
G90
G05
T1
X142.982Y-92.563
X142.982Y-93.338
X142.982Y-94.114
X142.982Y-94.888
X143.757Y-92.563
X143.757Y-93.338
X143.757Y-94.114
X143.757Y-94.888
X144.532Y-92.563
X144.532Y-93.338
X144.532Y-94.114
X144.532Y-94.888
X145.308Y-92.563
X145.308Y-93.338
X145.308Y-94.114
X145.308Y-94.888
T2
X140.317Y-77.267
X140.317Y-79.807
X140.317Y-82.347
X140.317Y-84.887
X140.317Y-87.427
X140.317Y-89.967
X140.317Y-92.507
X140.317Y-95.047
X140.317Y-97.587
X140.317Y-100.127
X140.317Y-102.667
X140.317Y-105.207
X140.317Y-107.747
X140.317Y-110.287
X147.937Y-77.267
X147.937Y-79.807
X147.937Y-82.347
X147.937Y-84.887
X147.937Y-87.427
X147.937Y-89.967
X147.937Y-92.507
X147.937Y-95.047
X147.937Y-97.587
X147.937Y-100.127
X147.937Y-102.667
X147.937Y-105.207
X147.937Y-107.747
X147.937Y-110.287
T0
M30
