%TF.GenerationSoftware,KiCad,Pcbnew,5.1.6-c6e7f7d~87~ubuntu18.04.1*%
%TF.CreationDate,2023-11-02T18:31:54+00:00*%
%TF.ProjectId,tlc5940nt_dip_adapter,746c6335-3934-4306-9e74-5f6469705f61,1.0*%
%TF.SameCoordinates,Original*%
%TF.FileFunction,Legend,Top*%
%TF.FilePolarity,Positive*%
%FSLAX46Y46*%
G04 Gerber Fmt 4.6, Leading zero omitted, Abs format (unit mm)*
G04 Created by KiCad (PCBNEW 5.1.6-c6e7f7d~87~ubuntu18.04.1) date 2023-11-02 18:31:54*
%MOMM*%
%LPD*%
G01*
G04 APERTURE LIST*
%ADD10C,0.125000*%
%ADD11C,0.150000*%
%ADD12C,0.120000*%
G04 APERTURE END LIST*
D10*
X144657928Y-98889952D02*
X144634119Y-98866142D01*
X144610309Y-98794714D01*
X144610309Y-98747095D01*
X144634119Y-98675666D01*
X144681738Y-98628047D01*
X144729357Y-98604238D01*
X144824595Y-98580428D01*
X144896023Y-98580428D01*
X144991261Y-98604238D01*
X145038880Y-98628047D01*
X145086500Y-98675666D01*
X145110309Y-98747095D01*
X145110309Y-98794714D01*
X145086500Y-98866142D01*
X145062690Y-98889952D01*
X144610309Y-99175666D02*
X144634119Y-99128047D01*
X144657928Y-99104238D01*
X144705547Y-99080428D01*
X144848404Y-99080428D01*
X144896023Y-99104238D01*
X144919833Y-99128047D01*
X144943642Y-99175666D01*
X144943642Y-99247095D01*
X144919833Y-99294714D01*
X144896023Y-99318523D01*
X144848404Y-99342333D01*
X144705547Y-99342333D01*
X144657928Y-99318523D01*
X144634119Y-99294714D01*
X144610309Y-99247095D01*
X144610309Y-99175666D01*
X144943642Y-99556619D02*
X144443642Y-99556619D01*
X144919833Y-99556619D02*
X144943642Y-99604238D01*
X144943642Y-99699476D01*
X144919833Y-99747095D01*
X144896023Y-99770904D01*
X144848404Y-99794714D01*
X144705547Y-99794714D01*
X144657928Y-99770904D01*
X144634119Y-99747095D01*
X144610309Y-99699476D01*
X144610309Y-99604238D01*
X144634119Y-99556619D01*
X144943642Y-99961380D02*
X144610309Y-100080428D01*
X144943642Y-100199476D02*
X144610309Y-100080428D01*
X144491261Y-100032809D01*
X144467452Y-100009000D01*
X144443642Y-99961380D01*
X144610309Y-100389952D02*
X144943642Y-100389952D01*
X144848404Y-100389952D02*
X144896023Y-100413761D01*
X144919833Y-100437571D01*
X144943642Y-100485190D01*
X144943642Y-100532809D01*
X144610309Y-100699476D02*
X144943642Y-100699476D01*
X145110309Y-100699476D02*
X145086500Y-100675666D01*
X145062690Y-100699476D01*
X145086500Y-100723285D01*
X145110309Y-100699476D01*
X145062690Y-100699476D01*
X144943642Y-101151857D02*
X144538880Y-101151857D01*
X144491261Y-101128047D01*
X144467452Y-101104238D01*
X144443642Y-101056619D01*
X144443642Y-100985190D01*
X144467452Y-100937571D01*
X144634119Y-101151857D02*
X144610309Y-101104238D01*
X144610309Y-101009000D01*
X144634119Y-100961380D01*
X144657928Y-100937571D01*
X144705547Y-100913761D01*
X144848404Y-100913761D01*
X144896023Y-100937571D01*
X144919833Y-100961380D01*
X144943642Y-101009000D01*
X144943642Y-101104238D01*
X144919833Y-101151857D01*
X144610309Y-101389952D02*
X145110309Y-101389952D01*
X144610309Y-101604238D02*
X144872214Y-101604238D01*
X144919833Y-101580428D01*
X144943642Y-101532809D01*
X144943642Y-101461380D01*
X144919833Y-101413761D01*
X144896023Y-101389952D01*
X144943642Y-101770904D02*
X144943642Y-101961380D01*
X145110309Y-101842333D02*
X144681738Y-101842333D01*
X144634119Y-101866142D01*
X144610309Y-101913761D01*
X144610309Y-101961380D01*
X145062690Y-102485190D02*
X145086500Y-102509000D01*
X145110309Y-102556619D01*
X145110309Y-102675666D01*
X145086500Y-102723285D01*
X145062690Y-102747095D01*
X145015071Y-102770904D01*
X144967452Y-102770904D01*
X144896023Y-102747095D01*
X144610309Y-102461380D01*
X144610309Y-102770904D01*
X145110309Y-103080428D02*
X145110309Y-103128047D01*
X145086500Y-103175666D01*
X145062690Y-103199476D01*
X145015071Y-103223285D01*
X144919833Y-103247095D01*
X144800785Y-103247095D01*
X144705547Y-103223285D01*
X144657928Y-103199476D01*
X144634119Y-103175666D01*
X144610309Y-103128047D01*
X144610309Y-103080428D01*
X144634119Y-103032809D01*
X144657928Y-103009000D01*
X144705547Y-102985190D01*
X144800785Y-102961380D01*
X144919833Y-102961380D01*
X145015071Y-102985190D01*
X145062690Y-103009000D01*
X145086500Y-103032809D01*
X145110309Y-103080428D01*
X145062690Y-103437571D02*
X145086500Y-103461380D01*
X145110309Y-103509000D01*
X145110309Y-103628047D01*
X145086500Y-103675666D01*
X145062690Y-103699476D01*
X145015071Y-103723285D01*
X144967452Y-103723285D01*
X144896023Y-103699476D01*
X144610309Y-103413761D01*
X144610309Y-103723285D01*
X145110309Y-103889952D02*
X145110309Y-104199476D01*
X144919833Y-104032809D01*
X144919833Y-104104238D01*
X144896023Y-104151857D01*
X144872214Y-104175666D01*
X144824595Y-104199476D01*
X144705547Y-104199476D01*
X144657928Y-104175666D01*
X144634119Y-104151857D01*
X144610309Y-104104238D01*
X144610309Y-103961380D01*
X144634119Y-103913761D01*
X144657928Y-103889952D01*
X144872214Y-104961380D02*
X144848404Y-105032809D01*
X144824595Y-105056619D01*
X144776976Y-105080428D01*
X144705547Y-105080428D01*
X144657928Y-105056619D01*
X144634119Y-105032809D01*
X144610309Y-104985190D01*
X144610309Y-104794714D01*
X145110309Y-104794714D01*
X145110309Y-104961380D01*
X145086500Y-105009000D01*
X145062690Y-105032809D01*
X145015071Y-105056619D01*
X144967452Y-105056619D01*
X144919833Y-105032809D01*
X144896023Y-105009000D01*
X144872214Y-104961380D01*
X144872214Y-104794714D01*
X144610309Y-105294714D02*
X144943642Y-105294714D01*
X145110309Y-105294714D02*
X145086500Y-105270904D01*
X145062690Y-105294714D01*
X145086500Y-105318523D01*
X145110309Y-105294714D01*
X145062690Y-105294714D01*
X144943642Y-105532809D02*
X144610309Y-105532809D01*
X144896023Y-105532809D02*
X144919833Y-105556619D01*
X144943642Y-105604238D01*
X144943642Y-105675666D01*
X144919833Y-105723285D01*
X144872214Y-105747095D01*
X144610309Y-105747095D01*
X144610309Y-106199476D02*
X144872214Y-106199476D01*
X144919833Y-106175666D01*
X144943642Y-106128047D01*
X144943642Y-106032809D01*
X144919833Y-105985190D01*
X144634119Y-106199476D02*
X144610309Y-106151857D01*
X144610309Y-106032809D01*
X144634119Y-105985190D01*
X144681738Y-105961380D01*
X144729357Y-105961380D01*
X144776976Y-105985190D01*
X144800785Y-106032809D01*
X144800785Y-106151857D01*
X144824595Y-106199476D01*
X144610309Y-106437571D02*
X144943642Y-106437571D01*
X144848404Y-106437571D02*
X144896023Y-106461380D01*
X144919833Y-106485190D01*
X144943642Y-106532809D01*
X144943642Y-106580428D01*
X144943642Y-106699476D02*
X144610309Y-106818523D01*
X144943642Y-106937571D02*
X144610309Y-106818523D01*
X144491261Y-106770904D01*
X144467452Y-106747095D01*
X144443642Y-106699476D01*
X144634119Y-107485190D02*
X144610309Y-107556619D01*
X144610309Y-107675666D01*
X144634119Y-107723285D01*
X144657928Y-107747095D01*
X144705547Y-107770904D01*
X144753166Y-107770904D01*
X144800785Y-107747095D01*
X144824595Y-107723285D01*
X144848404Y-107675666D01*
X144872214Y-107580428D01*
X144896023Y-107532809D01*
X144919833Y-107509000D01*
X144967452Y-107485190D01*
X145015071Y-107485190D01*
X145062690Y-107509000D01*
X145086500Y-107532809D01*
X145110309Y-107580428D01*
X145110309Y-107699476D01*
X145086500Y-107770904D01*
X144610309Y-108056619D02*
X144634119Y-108009000D01*
X144657928Y-107985190D01*
X144705547Y-107961380D01*
X144848404Y-107961380D01*
X144896023Y-107985190D01*
X144919833Y-108009000D01*
X144943642Y-108056619D01*
X144943642Y-108128047D01*
X144919833Y-108175666D01*
X144896023Y-108199476D01*
X144848404Y-108223285D01*
X144705547Y-108223285D01*
X144657928Y-108199476D01*
X144634119Y-108175666D01*
X144610309Y-108128047D01*
X144610309Y-108056619D01*
X144610309Y-108509000D02*
X144634119Y-108461380D01*
X144681738Y-108437571D01*
X145110309Y-108437571D01*
X144610309Y-108770904D02*
X144634119Y-108723285D01*
X144657928Y-108699476D01*
X144705547Y-108675666D01*
X144848404Y-108675666D01*
X144896023Y-108699476D01*
X144919833Y-108723285D01*
X144943642Y-108770904D01*
X144943642Y-108842333D01*
X144919833Y-108889952D01*
X144896023Y-108913761D01*
X144848404Y-108937571D01*
X144705547Y-108937571D01*
X144657928Y-108913761D01*
X144634119Y-108889952D01*
X144610309Y-108842333D01*
X144610309Y-108770904D01*
X144068642Y-99889952D02*
X143735309Y-99985190D01*
X143973404Y-100080428D01*
X143735309Y-100175666D01*
X144068642Y-100270904D01*
X144068642Y-100413761D02*
X143735309Y-100509000D01*
X143973404Y-100604238D01*
X143735309Y-100699476D01*
X144068642Y-100794714D01*
X144068642Y-100937571D02*
X143735309Y-101032809D01*
X143973404Y-101128047D01*
X143735309Y-101223285D01*
X144068642Y-101318523D01*
X143782928Y-101509000D02*
X143759119Y-101532809D01*
X143735309Y-101509000D01*
X143759119Y-101485190D01*
X143782928Y-101509000D01*
X143735309Y-101509000D01*
X143735309Y-101747095D02*
X144235309Y-101747095D01*
X144044833Y-101747095D02*
X144068642Y-101794714D01*
X144068642Y-101889952D01*
X144044833Y-101937571D01*
X144021023Y-101961380D01*
X143973404Y-101985190D01*
X143830547Y-101985190D01*
X143782928Y-101961380D01*
X143759119Y-101937571D01*
X143735309Y-101889952D01*
X143735309Y-101794714D01*
X143759119Y-101747095D01*
X143735309Y-102199476D02*
X144068642Y-102199476D01*
X144235309Y-102199476D02*
X144211500Y-102175666D01*
X144187690Y-102199476D01*
X144211500Y-102223285D01*
X144235309Y-102199476D01*
X144187690Y-102199476D01*
X144068642Y-102437571D02*
X143735309Y-102437571D01*
X144021023Y-102437571D02*
X144044833Y-102461380D01*
X144068642Y-102509000D01*
X144068642Y-102580428D01*
X144044833Y-102628047D01*
X143997214Y-102651857D01*
X143735309Y-102651857D01*
X143735309Y-103104238D02*
X143997214Y-103104238D01*
X144044833Y-103080428D01*
X144068642Y-103032809D01*
X144068642Y-102937571D01*
X144044833Y-102889952D01*
X143759119Y-103104238D02*
X143735309Y-103056619D01*
X143735309Y-102937571D01*
X143759119Y-102889952D01*
X143806738Y-102866142D01*
X143854357Y-102866142D01*
X143901976Y-102889952D01*
X143925785Y-102937571D01*
X143925785Y-103056619D01*
X143949595Y-103104238D01*
X143735309Y-103342333D02*
X144068642Y-103342333D01*
X143973404Y-103342333D02*
X144021023Y-103366142D01*
X144044833Y-103389952D01*
X144068642Y-103437571D01*
X144068642Y-103485190D01*
X144068642Y-103604238D02*
X143735309Y-103723285D01*
X144068642Y-103842333D02*
X143735309Y-103723285D01*
X143616261Y-103675666D01*
X143592452Y-103651857D01*
X143568642Y-103604238D01*
X143759119Y-104009000D02*
X143735309Y-104056619D01*
X143735309Y-104151857D01*
X143759119Y-104199476D01*
X143806738Y-104223285D01*
X143830547Y-104223285D01*
X143878166Y-104199476D01*
X143901976Y-104151857D01*
X143901976Y-104080428D01*
X143925785Y-104032809D01*
X143973404Y-104009000D01*
X143997214Y-104009000D01*
X144044833Y-104032809D01*
X144068642Y-104080428D01*
X144068642Y-104151857D01*
X144044833Y-104199476D01*
X143735309Y-104509000D02*
X143759119Y-104461380D01*
X143782928Y-104437571D01*
X143830547Y-104413761D01*
X143973404Y-104413761D01*
X144021023Y-104437571D01*
X144044833Y-104461380D01*
X144068642Y-104509000D01*
X144068642Y-104580428D01*
X144044833Y-104628047D01*
X144021023Y-104651857D01*
X143973404Y-104675666D01*
X143830547Y-104675666D01*
X143782928Y-104651857D01*
X143759119Y-104628047D01*
X143735309Y-104580428D01*
X143735309Y-104509000D01*
X143735309Y-104961380D02*
X143759119Y-104913761D01*
X143806738Y-104889952D01*
X144235309Y-104889952D01*
X143735309Y-105223285D02*
X143759119Y-105175666D01*
X143782928Y-105151857D01*
X143830547Y-105128047D01*
X143973404Y-105128047D01*
X144021023Y-105151857D01*
X144044833Y-105175666D01*
X144068642Y-105223285D01*
X144068642Y-105294714D01*
X144044833Y-105342333D01*
X144021023Y-105366142D01*
X143973404Y-105389952D01*
X143830547Y-105389952D01*
X143782928Y-105366142D01*
X143759119Y-105342333D01*
X143735309Y-105294714D01*
X143735309Y-105223285D01*
X143782928Y-105604238D02*
X143759119Y-105628047D01*
X143735309Y-105604238D01*
X143759119Y-105580428D01*
X143782928Y-105604238D01*
X143735309Y-105604238D01*
X143759119Y-106056619D02*
X143735309Y-106009000D01*
X143735309Y-105913761D01*
X143759119Y-105866142D01*
X143782928Y-105842333D01*
X143830547Y-105818523D01*
X143973404Y-105818523D01*
X144021023Y-105842333D01*
X144044833Y-105866142D01*
X144068642Y-105913761D01*
X144068642Y-106009000D01*
X144044833Y-106056619D01*
X143735309Y-106342333D02*
X143759119Y-106294714D01*
X143782928Y-106270904D01*
X143830547Y-106247095D01*
X143973404Y-106247095D01*
X144021023Y-106270904D01*
X144044833Y-106294714D01*
X144068642Y-106342333D01*
X144068642Y-106413761D01*
X144044833Y-106461380D01*
X144021023Y-106485190D01*
X143973404Y-106509000D01*
X143830547Y-106509000D01*
X143782928Y-106485190D01*
X143759119Y-106461380D01*
X143735309Y-106413761D01*
X143735309Y-106342333D01*
X143782928Y-106723285D02*
X143759119Y-106747095D01*
X143735309Y-106723285D01*
X143759119Y-106699476D01*
X143782928Y-106723285D01*
X143735309Y-106723285D01*
X144068642Y-107175666D02*
X143735309Y-107175666D01*
X144068642Y-106961380D02*
X143806738Y-106961380D01*
X143759119Y-106985190D01*
X143735309Y-107032809D01*
X143735309Y-107104238D01*
X143759119Y-107151857D01*
X143782928Y-107175666D01*
X143735309Y-107413761D02*
X144235309Y-107413761D01*
X143925785Y-107461380D02*
X143735309Y-107604238D01*
X144068642Y-107604238D02*
X143878166Y-107413761D01*
D11*
X145390619Y-79073952D02*
X145390619Y-79645380D01*
X144390619Y-79359666D02*
X145390619Y-79359666D01*
X144390619Y-80454904D02*
X144390619Y-79978714D01*
X145390619Y-79978714D01*
X144485857Y-81359666D02*
X144438238Y-81312047D01*
X144390619Y-81169190D01*
X144390619Y-81073952D01*
X144438238Y-80931095D01*
X144533476Y-80835857D01*
X144628714Y-80788238D01*
X144819190Y-80740619D01*
X144962047Y-80740619D01*
X145152523Y-80788238D01*
X145247761Y-80835857D01*
X145343000Y-80931095D01*
X145390619Y-81073952D01*
X145390619Y-81169190D01*
X145343000Y-81312047D01*
X145295380Y-81359666D01*
X145390619Y-82264428D02*
X145390619Y-81788238D01*
X144914428Y-81740619D01*
X144962047Y-81788238D01*
X145009666Y-81883476D01*
X145009666Y-82121571D01*
X144962047Y-82216809D01*
X144914428Y-82264428D01*
X144819190Y-82312047D01*
X144581095Y-82312047D01*
X144485857Y-82264428D01*
X144438238Y-82216809D01*
X144390619Y-82121571D01*
X144390619Y-81883476D01*
X144438238Y-81788238D01*
X144485857Y-81740619D01*
X144390619Y-82788238D02*
X144390619Y-82978714D01*
X144438238Y-83073952D01*
X144485857Y-83121571D01*
X144628714Y-83216809D01*
X144819190Y-83264428D01*
X145200142Y-83264428D01*
X145295380Y-83216809D01*
X145343000Y-83169190D01*
X145390619Y-83073952D01*
X145390619Y-82883476D01*
X145343000Y-82788238D01*
X145295380Y-82740619D01*
X145200142Y-82693000D01*
X144962047Y-82693000D01*
X144866809Y-82740619D01*
X144819190Y-82788238D01*
X144771571Y-82883476D01*
X144771571Y-83073952D01*
X144819190Y-83169190D01*
X144866809Y-83216809D01*
X144962047Y-83264428D01*
X145057285Y-84121571D02*
X144390619Y-84121571D01*
X145438238Y-83883476D02*
X144723952Y-83645380D01*
X144723952Y-84264428D01*
X145390619Y-84835857D02*
X145390619Y-84931095D01*
X145343000Y-85026333D01*
X145295380Y-85073952D01*
X145200142Y-85121571D01*
X145009666Y-85169190D01*
X144771571Y-85169190D01*
X144581095Y-85121571D01*
X144485857Y-85073952D01*
X144438238Y-85026333D01*
X144390619Y-84931095D01*
X144390619Y-84835857D01*
X144438238Y-84740619D01*
X144485857Y-84693000D01*
X144581095Y-84645380D01*
X144771571Y-84597761D01*
X145009666Y-84597761D01*
X145200142Y-84645380D01*
X145295380Y-84693000D01*
X145343000Y-84740619D01*
X145390619Y-84835857D01*
X144390619Y-86169190D02*
X144866809Y-85835857D01*
X144390619Y-85597761D02*
X145390619Y-85597761D01*
X145390619Y-85978714D01*
X145343000Y-86073952D01*
X145295380Y-86121571D01*
X145200142Y-86169190D01*
X145057285Y-86169190D01*
X144962047Y-86121571D01*
X144914428Y-86073952D01*
X144866809Y-85978714D01*
X144866809Y-85597761D01*
X144390619Y-86597761D02*
X145390619Y-86597761D01*
X144914428Y-86597761D02*
X144914428Y-87169190D01*
X144390619Y-87169190D02*
X145390619Y-87169190D01*
X144914428Y-87978714D02*
X144866809Y-88121571D01*
X144819190Y-88169190D01*
X144723952Y-88216809D01*
X144581095Y-88216809D01*
X144485857Y-88169190D01*
X144438238Y-88121571D01*
X144390619Y-88026333D01*
X144390619Y-87645380D01*
X145390619Y-87645380D01*
X145390619Y-87978714D01*
X145343000Y-88073952D01*
X145295380Y-88121571D01*
X145200142Y-88169190D01*
X145104904Y-88169190D01*
X145009666Y-88121571D01*
X144962047Y-88073952D01*
X144914428Y-87978714D01*
X144914428Y-87645380D01*
X142740619Y-79502523D02*
X143740619Y-79502523D01*
X143740619Y-79740619D01*
X143693000Y-79883476D01*
X143597761Y-79978714D01*
X143502523Y-80026333D01*
X143312047Y-80073952D01*
X143169190Y-80073952D01*
X142978714Y-80026333D01*
X142883476Y-79978714D01*
X142788238Y-79883476D01*
X142740619Y-79740619D01*
X142740619Y-79502523D01*
X142740619Y-80502523D02*
X143740619Y-80502523D01*
X142740619Y-80978714D02*
X143740619Y-80978714D01*
X143740619Y-81359666D01*
X143693000Y-81454904D01*
X143645380Y-81502523D01*
X143550142Y-81550142D01*
X143407285Y-81550142D01*
X143312047Y-81502523D01*
X143264428Y-81454904D01*
X143216809Y-81359666D01*
X143216809Y-80978714D01*
X143026333Y-82693000D02*
X143026333Y-83169190D01*
X142740619Y-82597761D02*
X143740619Y-82931095D01*
X142740619Y-83264428D01*
X142740619Y-84026333D02*
X143740619Y-84026333D01*
X142788238Y-84026333D02*
X142740619Y-83931095D01*
X142740619Y-83740619D01*
X142788238Y-83645380D01*
X142835857Y-83597761D01*
X142931095Y-83550142D01*
X143216809Y-83550142D01*
X143312047Y-83597761D01*
X143359666Y-83645380D01*
X143407285Y-83740619D01*
X143407285Y-83931095D01*
X143359666Y-84026333D01*
X142740619Y-84931095D02*
X143264428Y-84931095D01*
X143359666Y-84883476D01*
X143407285Y-84788238D01*
X143407285Y-84597761D01*
X143359666Y-84502523D01*
X142788238Y-84931095D02*
X142740619Y-84835857D01*
X142740619Y-84597761D01*
X142788238Y-84502523D01*
X142883476Y-84454904D01*
X142978714Y-84454904D01*
X143073952Y-84502523D01*
X143121571Y-84597761D01*
X143121571Y-84835857D01*
X143169190Y-84931095D01*
X143407285Y-85407285D02*
X142407285Y-85407285D01*
X143359666Y-85407285D02*
X143407285Y-85502523D01*
X143407285Y-85693000D01*
X143359666Y-85788238D01*
X143312047Y-85835857D01*
X143216809Y-85883476D01*
X142931095Y-85883476D01*
X142835857Y-85835857D01*
X142788238Y-85788238D01*
X142740619Y-85693000D01*
X142740619Y-85502523D01*
X142788238Y-85407285D01*
X143407285Y-86169190D02*
X143407285Y-86550142D01*
X143740619Y-86312047D02*
X142883476Y-86312047D01*
X142788238Y-86359666D01*
X142740619Y-86454904D01*
X142740619Y-86550142D01*
X142788238Y-87264428D02*
X142740619Y-87169190D01*
X142740619Y-86978714D01*
X142788238Y-86883476D01*
X142883476Y-86835857D01*
X143264428Y-86835857D01*
X143359666Y-86883476D01*
X143407285Y-86978714D01*
X143407285Y-87169190D01*
X143359666Y-87264428D01*
X143264428Y-87312047D01*
X143169190Y-87312047D01*
X143073952Y-86835857D01*
X142740619Y-87740619D02*
X143407285Y-87740619D01*
X143216809Y-87740619D02*
X143312047Y-87788238D01*
X143359666Y-87835857D01*
X143407285Y-87931095D01*
X143407285Y-88026333D01*
D12*
%TO.C,U1*%
X146795000Y-91476000D02*
X146795000Y-90976000D01*
X141495000Y-91076000D02*
X141895000Y-91076000D01*
X141495000Y-91476000D02*
X141495000Y-91076000D01*
X141495000Y-96376000D02*
X141895000Y-96376000D01*
X141495000Y-95976000D02*
X141495000Y-96376000D01*
X146795000Y-96376000D02*
X146395000Y-96376000D01*
X146795000Y-95976000D02*
X146795000Y-96376000D01*
%TO.C,J1*%
X143127001Y-75937001D02*
X141477001Y-75937001D01*
X141477001Y-75937001D02*
X141477001Y-111617001D01*
X141477001Y-111617001D02*
X146777001Y-111617001D01*
X146777001Y-111617001D02*
X146777001Y-75937001D01*
X146777001Y-75937001D02*
X145127001Y-75937001D01*
X145127001Y-75937001D02*
G75*
G02*
X143127001Y-75937001I-1000000J0D01*
G01*
%TD*%
M02*
